<?xml version="1.0" encoding="utf-8"?>
<!-- Generator: Adobe Illustrator 23.0.4, SVG Export Plug-In . SVG Version: 6.00 Build 0)  -->
<svg version="1.2" baseProfile="tiny" id="Layer_1" xmlns="http://www.w3.org/2000/svg" xmlns:xlink="http://www.w3.org/1999/xlink"
	 x="0px" y="0px" viewBox="0 0 16 16" xml:space="preserve">
<g>
	<path fill="#A76D14" stroke="#1D1D1B" stroke-width="5.425683e-02" stroke-miterlimit="10" d="M5.8,9.2L4.7,8.6
		c-0.1,0-0.1,0-0.2,0.1L4.4,8.9c0,0.1,0,0.1,0.1,0.2l0.5,0.3L4.5,9.4c-0.1,0-0.1,0.1-0.1,0.2l0,0.1c0,0.1,0.1,0.1,0.2,0.1l1-0.2
		l0.1,0c0.1,0,0.1,0,0.2-0.1l0.1-0.2C5.9,9.3,5.9,9.2,5.8,9.2z"/>
	<path fill="#A76D14" stroke="#1D1D1B" stroke-width="5.425683e-02" stroke-miterlimit="10" d="M7.1,9.5L6.4,9.1
		C6.1,9,5.9,9.1,5.8,9.3l-1.7,3.3c0,0,0,0.1,0,0.1C4,12.8,4,12.9,4,13c0,0.4,0.4,0.7,0.9,0.7c0.5,0,0.9-0.3,0.9-0.6l1.5-3
		C7.5,9.8,7.4,9.6,7.1,9.5z"/>
	<path fill="#A76D14" stroke="#1D1D1B" stroke-width="5.425683e-02" stroke-miterlimit="10" d="M8.9,9.4l0.8-0.3
		c0.2-0.1,0.5,0,0.6,0.2l1.7,3.3c0,0,0,0.1,0,0.1c0.1,0.1,0.1,0.2,0.1,0.3c0,0.4-0.4,0.7-0.9,0.7c-0.5,0-0.9-0.3-0.9-0.6l-1.5-3
		C8.6,9.8,8.7,9.5,8.9,9.4z"/>
	<path fill="#A76D14" stroke="#1D1D1B" stroke-width="5.425683e-02" stroke-miterlimit="10" d="M9.7,9.5c0-0.4-0.3-0.7-0.7-0.7H6.8
		c-0.4,0-0.7,0.3-0.7,0.7v2.9c0,0.1,0,0.2,0,0.2c0,0.1,0,0.2,0,0.2v1.4c0,0.4,0.3,0.7,0.7,0.7h0.4c0.4,0,0.7-0.3,0.7-0.7v-1.3H8v1.3
		C8,14.7,8.3,15,8.7,15h0.4c0.4,0,0.7-0.3,0.7-0.7v-1.4c0-0.1,0-0.2,0-0.2c0-0.1,0-0.2,0-0.2V9.5z"/>
	<path fill="#A76D14" stroke="#1D1D1B" stroke-width="5.425683e-02" stroke-miterlimit="10" d="M12,2.4l-0.1-0.2
		c-0.1-0.1-0.2-0.1-0.2,0l-0.4,0.3V2.4c0-0.1-0.1-0.2-0.2-0.2h-0.1c-0.1,0-0.2,0.1-0.2,0.2v0.5l0,0c-0.1,0.1-0.1,0.2,0,0.2L11,3.3
		c0.1,0.1,0.2,0.1,0.2,0L12,2.6C12.1,2.5,12.1,2.4,12,2.4z"/>
	<path fill="#A76D14" stroke="#1D1D1B" stroke-width="5.425683e-02" stroke-miterlimit="10" d="M11.6,4.1
		C11.6,4.1,11.6,4.1,11.6,4.1c0.1-0.3,0-0.7-0.3-0.8c-0.1-0.1-0.2-0.1-0.4-0.1C11,3.1,10.9,3,10.9,3l-0.3-0.4c0.1-0.2,0-0.5-0.1-0.7
		l0,0C10.2,1.7,10,1.7,9.7,1.7L9.6,1.6C9.4,1.3,9,1.3,8.7,1.6L8,2.2V1H6.4H6.4H6.2C5.9,1,5.6,1.3,5.6,1.6v1.4L4.9,2.6l-0.7,1
		l0.2,0.1c0,0-0.1,0.1-0.1,0.2v1.6c0,0,0,0,0,0c0,0,0,0.1,0,0.1l0.2,0.9c0,0.1,0,0.1,0,0.2c0,1.6,1.6,2.9,3.5,2.9
		c1.5,0,2.8-0.8,3.3-2c0,0,0-0.1,0-0.1l0,0c0.1-0.3,0.1-0.5,0.1-0.8c0,0,0,0,0-0.1l0.2-1.3L11.8,5C12,4.7,11.9,4.3,11.6,4.1z"/>
	<g>
		<path fill="none" stroke="#000000" stroke-width="0.1628" stroke-miterlimit="10" d="M7.1,8.2c0,0,0.7,0.8,1.5,0"/>
		<g>
			<circle stroke="#1D1D1B" stroke-width="5.425683e-02" stroke-miterlimit="10" cx="6.1" cy="6.9" r="0.8"/>
			<circle fill="#FFFFFF" stroke="#FFFFFF" stroke-width="5.425683e-02" stroke-miterlimit="10" cx="5.8" cy="6.6" r="0.3"/>
			<circle fill="#FFFFFF" stroke="#FFFFFF" stroke-width="5.425683e-02" stroke-miterlimit="10" cx="6.3" cy="7.3" r="0.1"/>
		</g>
		<g>
			<circle stroke="#1D1D1B" stroke-width="5.425683e-02" stroke-miterlimit="10" cx="9.8" cy="6.9" r="0.8"/>
			<circle fill="#FFFFFF" stroke="#FFFFFF" stroke-width="5.425683e-02" stroke-miterlimit="10" cx="9.5" cy="6.6" r="0.3"/>
			<circle fill="#FFFFFF" stroke="#FFFFFF" stroke-width="5.425683e-02" stroke-miterlimit="10" cx="9.9" cy="7.3" r="0.1"/>
		</g>
	</g>
	<g>
		<path fill="none" stroke="#833D12" stroke-width="1.356421e-02" stroke-miterlimit="10" d="M6.2,9.6c0,0,0.7,1.4,1,1.5
			c0.2,0.1,1.1,0.1,1.2,0.4c0.1,0.3,1.3,0.3,1.3,0.3"/>
		<polyline fill="none" stroke="#833D12" stroke-width="1.356421e-02" stroke-miterlimit="10" points="9.6,9.1 7.8,13.1 6.1,11.5 
			6.8,15 7.8,14.2 		"/>
		<path fill="none" stroke="#833D12" stroke-width="1.356421e-02" stroke-miterlimit="10" d="M7.9,9.5c0,0,0.3,1,0.1,1.2
			s-1,0.9-1,1.1c0,0.3,0.1,1.4-0.2,1.4c-0.3,0-0.6,0.6-0.6,0.6"/>
		<path fill="none" stroke="#833D12" stroke-width="1.356421e-02" stroke-miterlimit="10" d="M9.7,13.9c0,0-0.8-1.9-1.6-1.7
			c-0.8,0.2-0.4,0.8-0.4,0.8"/>
		<path fill="none" stroke="#833D12" stroke-width="1.356421e-02" stroke-miterlimit="10" d="M9.7,13.1l-1.7,0.7
			c0.6,0.4,0.1,1,0.1,1"/>
		<path fill="none" stroke="#833D12" stroke-width="1.356421e-02" stroke-miterlimit="10" d="M9.5,14.8c0,0-1.3-1.5-0.9-1.9
			C9.1,12.4,9.7,12,9.7,12L8.9,9.4"/>
	</g>
	<line fill="none" stroke="#833D12" stroke-width="1.356421e-02" stroke-miterlimit="10" x1="5.9" y1="9.8" x2="4.9" y2="11.8"/>
	<line fill="none" stroke="#833D12" stroke-width="1.356421e-02" stroke-miterlimit="10" x1="5.8" y1="11.3" x2="4.8" y2="13.3"/>
	<line fill="none" stroke="#833D12" stroke-width="1.356421e-02" stroke-miterlimit="10" x1="5.9" y1="12.4" x2="5.6" y2="12.9"/>
	<line fill="none" stroke="#833D12" stroke-width="1.356421e-02" stroke-miterlimit="10" x1="4.5" y1="12.2" x2="4.2" y2="12.8"/>
	<line fill="none" stroke="#833D12" stroke-width="1.356421e-02" stroke-miterlimit="10" x1="10.2" y1="10" x2="11.3" y2="12.2"/>
	<line fill="none" stroke="#833D12" stroke-width="1.356421e-02" stroke-miterlimit="10" x1="10.2" y1="11.2" x2="11.3" y2="13.3"/>
	<line fill="none" stroke="#833D12" stroke-width="1.356421e-02" stroke-miterlimit="10" x1="10" y1="11.9" x2="10.3" y2="12.4"/>
	<line fill="none" stroke="#833D12" stroke-width="1.356421e-02" stroke-miterlimit="10" x1="6.4" y1="1.5" x2="6.4" y2="5"/>
	<line fill="none" stroke="#833D12" stroke-width="1.356421e-02" stroke-miterlimit="10" x1="7.4" y1="2.7" x2="7.4" y2="4.7"/>
	<line fill="none" stroke="#833D12" stroke-width="1.356421e-02" stroke-miterlimit="10" x1="8.9" y1="2.2" x2="8.9" y2="5.5"/>
	<line fill="none" stroke="#833D12" stroke-width="1.356421e-02" stroke-miterlimit="10" x1="10.1" y1="3.7" x2="10.1" y2="5"/>
	<line fill="none" stroke="#833D12" stroke-width="1.356421e-02" stroke-miterlimit="10" x1="4.8" y1="4.2" x2="4.8" y2="5.6"/>
	<line fill="none" stroke="#833D12" stroke-width="1.356421e-02" stroke-miterlimit="10" x1="11.1" y1="3.8" x2="11.1" y2="5.9"/>
	<path fill="#72B52B" stroke="#1D1D1B" stroke-width="5.425683e-02" stroke-miterlimit="10" d="M10.7,10.1c0,0-0.1-0.3,0.2-0.5
		C10.9,9.6,11,9.9,10.7,10.1z"/>
	<g>
		<path fill="#72B52B" stroke="#1D1D1B" stroke-width="5.425683e-02" stroke-miterlimit="10" d="M8,1.4c0,0,0-1,1-1
			C8.9,0.4,9.3,1.6,8,1.4z"/>
		<path fill="none" stroke="#1D1D1B" stroke-width="1.356421e-02" stroke-miterlimit="10" d="M8,1.4c0,0,0.8-0.4,0.9-0.8"/>
		<path fill="none" stroke="#1D1D1B" stroke-width="1.356421e-02" stroke-miterlimit="10" d="M8.3,1.1c0,0-0.1-0.1-0.1-0.3"/>
		<path fill="none" stroke="#1D1D1B" stroke-width="1.356421e-02" stroke-miterlimit="10" d="M8.3,1.2c0,0,0.1,0.2,0.4,0"/>
		<path fill="none" stroke="#1D1D1B" stroke-width="1.356421e-02" stroke-miterlimit="10" d="M8.8,1c0,0-0.2,0.1-0.3-0.1
			c0,0-0.2-0.2,0-0.4"/>
		<path fill="none" stroke="#1D1D1B" stroke-width="1.356421e-02" stroke-miterlimit="10" d="M8.7,0.6c0,0-0.2,0.2,0,0.3
			c0,0,0.1,0.1,0.2,0"/>
	</g>
	<path fill="#72B52B" stroke="#1D1D1B" stroke-width="5.425683e-02" stroke-miterlimit="10" d="M5.7,9.6c0,0,0.2,0.4-0.1,0.7
		c-0.4,0.3-0.2,0.1-0.2,0.1L5.7,9.6z"/>
	<path fill="#72B52B" stroke="#1D1D1B" stroke-width="5.425683e-02" stroke-miterlimit="10" d="M9.3,14.3
		C9.3,14.3,9.3,14.3,9.3,14.3c-0.1,1-0.9,0.1-0.9,0.1s0,0,0.1-0.1H8.1c0,0.4,0.3,0.7,0.7,0.7h0.3c0.4,0,0.7-0.3,0.7-0.7H9.3z"/>
</g>
</svg>
