<svg xmlns="http://www.w3.org/2000/svg" viewBox="0 0 238.42 434.36"><defs><style>.cls-1{fill:#a86d14;}.cls-1,.cls-2,.cls-3,.cls-4,.cls-6{stroke:#1d1d1b;}.cls-1,.cls-2,.cls-3,.cls-4,.cls-5,.cls-6{stroke-miterlimit:10;}.cls-2,.cls-6{fill:#72b62b;}.cls-2,.cls-3{stroke-width:0.5px;}.cls-3,.cls-4,.cls-5{fill:none;}.cls-4,.cls-5{stroke-width:0.25px;}.cls-5{stroke:#843d12;}</style></defs><title>grootSmall</title><g id="Layer_2" data-name="Layer 2"><g id="Layer_1-2" data-name="Layer 1"><path class="cls-1" d="M132,230.76l68.92-36,.24-.18c9.84-7,24.12-3.79,31.9,7.16s6.1,25.48-3.74,32.47a19.59,19.59,0,0,1-5,2.58l-70.06,36.56a8.48,8.48,0,0,1-11.4-3.59l-14.43-27.64A8.48,8.48,0,0,1,132,230.76Z"/><path class="cls-2" d="M72.79,51.76s-57,4.61-55.91-47.58C16.88,4.18,69.5-20,72.79,51.76Z"/><line class="cls-3" x1="28.33" y1="11.56" x2="64.56" y2="43.32"/><path class="cls-4" d="M22,18.91s13.33,6,16.9,1.94"/><path class="cls-4" d="M30.48,30.72s11.5,6.3,18.59,0"/><path class="cls-4" d="M46.45,9.2S50,18.59,44.82,26"/><path class="cls-4" d="M58.52,17.61s1.63,10.79-2.47,18.25"/><path class="cls-4" d="M32.27,4.18s5.52,7.68,2.08,12.65"/><path class="cls-4" d="M46.23,43.32S53,44.78,60.6,39.85"/><g id="Body"><path class="cls-1" d="M150.39,204.69V100.22h.14V39.57c0-9.51-10.67-17.3-23.72-17.3H93.65c-13,0-23.72,7.79-23.72,17.3V314.18c0,9.52,10.68,17.3,23.72,17.3h33.16c13.05,0,23.72-7.78,23.72-17.3V204.69Z"/><line class="cls-5" x1="83.51" y1="23.83" x2="83.51" y2="118.52"/><line class="cls-5" x1="134.22" y1="246.7" x2="134.22" y2="330.5"/><line class="cls-5" x1="109.76" y1="106.06" x2="109.76" y2="272.45"/><line class="cls-5" x1="134.22" y1="25.14" x2="134.22" y2="191.53"/></g><path id="Cup" class="cls-6" d="M16.1,296.82H214.44a15.82,15.82,0,0,1,15.38,18.58L212.21,420.63a15.7,15.7,0,0,1-15.38,13.23h-164a15.69,15.69,0,0,1-15.4-13.36L.7,315.27A15.82,15.82,0,0,1,16.1,296.82Z"/></g></g></svg>