<?xml version="1.0" standalone="no"?>
<!DOCTYPE svg PUBLIC "-//W3C//DTD SVG 20010904//EN"
 "http://www.w3.org/TR/2001/REC-SVG-20010904/DTD/svg10.dtd">
<svg version="1.0" xmlns="http://www.w3.org/2000/svg"
 width="824.000000pt" height="231.000000pt" viewBox="0 0 824.000000 231.000000"
 preserveAspectRatio="xMidYMid meet">

<g transform="translate(0.000000,231.000000) scale(0.100000,-0.100000)"
fill="#000000" stroke="none">
<path d="M190 1870 l0 -110 125 0 125 0 0 -64 0 -63 28 5 c15 2 32 8 37 12 6
4 33 11 60 14 94 14 95 14 95 57 l0 39 72 0 73 0 102 102 c57 57 103 106 103
110 0 5 -184 8 -410 8 l-410 0 0 -110z"/>
<path d="M2012 1927 c-55 -56 -66 -93 -36 -117 8 -8 22 -27 30 -44 17 -37 54
-99 63 -106 3 -3 21 -34 40 -70 63 -119 61 -120 61 33 l0 137 50 0 50 0 0
-305 0 -305 105 0 105 0 0 305 0 305 45 0 45 0 2 -266 3 -265 35 53 c35 54
151 168 170 168 6 0 10 76 10 213 l0 213 -53 52 -53 52 -132 0 -132 0 -24 -47
-24 -48 -23 48 -23 47 -131 0 -131 0 -52 -53z"/>
<path d="M3077 1805 c-48 -96 -84 -175 -81 -175 7 0 66 47 99 78 34 33 152
112 166 112 8 0 49 12 91 26 l77 25 -27 55 -26 54 -106 0 -105 0 -88 -175z"/>
<path d="M3802 1927 c-51 -52 -53 -56 -50 -103 3 -42 7 -51 35 -69 18 -11 32
-23 33 -28 0 -4 22 -30 49 -57 27 -27 60 -71 72 -97 l24 -48 3 118 3 117 202
0 202 0 53 105 c28 58 52 107 52 110 0 3 -141 5 -313 5 l-313 0 -52 -53z"/>
<path d="M4552 1927 l-52 -53 0 -310 0 -310 53 -52 53 -52 206 0 206 0 15 48
c9 26 21 72 27 102 13 59 28 101 62 165 23 42 78 118 91 123 4 2 7 70 7 151
l0 147 -48 47 -48 47 -260 0 -260 0 -52 -53z m458 -362 l0 -195 -150 0 -150 0
0 195 0 195 150 0 150 0 0 -195z"/>
<path d="M5240 1869 l0 -112 178 7 c97 3 182 6 187 5 6 0 90 -3 188 -6 l177
-5 0 111 0 111 -365 0 -365 0 0 -111z"/>
<path d="M6042 1927 l-52 -53 0 -135 0 -135 36 -37 c20 -20 41 -37 46 -37 5 0
6 -4 3 -10 -3 -5 -2 -10 4 -10 6 0 32 -22 59 -50 27 -27 52 -50 55 -50 4 0 7
79 7 175 l0 175 203 0 202 0 53 105 c28 58 52 107 52 110 0 3 -139 5 -308 5
l-308 0 -52 -53z"/>
<path d="M6730 1565 l0 -415 46 0 c26 0 75 5 110 12 l64 11 0 144 0 143 145 0
145 0 0 -155 0 -155 110 0 110 0 0 350 0 349 -37 10 c-21 6 -44 11 -50 11 -7
0 -13 4 -13 9 0 18 -83 101 -101 101 -18 0 -19 -9 -19 -155 l0 -155 -145 0
-145 0 0 155 0 155 -110 0 -110 0 0 -415z"/>
<path d="M7480 1490 l0 -340 105 0 105 0 0 323 0 323 -93 17 c-51 9 -98 17
-105 17 -9 0 -12 -80 -12 -340z"/>
<path d="M4213 1612 l57 -58 0 -92 0 -92 -125 0 -125 0 -2 -55 c-3 -95 -5
-110 -16 -132 -7 -12 -12 -24 -12 -27 0 -3 110 -6 245 -6 l245 0 0 260 0 260
-162 0 -162 0 57 -58z"/>
<path d="M2154 1417 c-30 -35 -180 -165 -212 -184 -41 -25 -153 -69 -192 -76
-14 -2 75 -5 198 -6 l222 -1 0 140 c0 77 -1 140 -2 140 -2 -1 -8 -6 -14 -13z"/>
<path d="M6215 1328 c4 -24 7 -47 8 -53 1 -5 20 -21 42 -36 22 -15 53 -41 69
-58 l30 -31 173 0 173 0 0 110 0 110 -250 0 -251 0 6 -42z"/>
<path d="M2070 835 l0 -195 50 0 50 0 0 195 0 195 -50 0 -50 0 0 -195z"/>
<path d="M2382 917 l-52 -53 0 -305 0 -305 35 -34 c19 -18 38 -31 42 -27 3 4
3 7 0 7 -4 0 -3 10 2 23 5 13 12 48 16 78 4 30 11 61 15 69 4 8 8 18 9 23 1
20 26 170 41 247 10 48 19 126 25 200 2 25 7 64 10 88 l6 42 -48 0 c-45 0 -52
-4 -101 -53z"/>
<path d="M3997 922 l-47 -48 0 -315 0 -315 48 -47 48 -47 265 0 265 0 47 48
47 48 0 315 0 315 -48 47 -48 47 -265 0 -265 0 -47 -48z m463 -362 l0 -200
-150 0 -150 0 0 200 0 200 150 0 150 0 0 -200z"/>
<path d="M4797 922 l-47 -48 0 -252 c0 -139 4 -251 8 -248 5 3 26 39 47 81 20
41 41 78 46 81 5 3 9 11 9 19 0 7 15 46 33 87 47 102 55 127 62 178 9 65 9 65
17 70 3 3 9 22 13 43 l7 37 -74 0 -74 0 -47 -48z"/>
<path d="M6178 956 c-21 -5 -38 -14 -38 -20 0 -12 -126 -142 -219 -226 -115
-104 -111 -93 -111 -343 l0 -217 110 0 110 0 0 305 0 305 125 0 125 0 0 95 c0
52 -1 95 -3 95 -1 0 -16 4 -32 8 -17 4 -47 4 -67 -2z"/>
<path d="M3833 757 c-13 -27 -23 -51 -23 -54 0 -3 -6 -19 -14 -36 -19 -45 -34
-104 -42 -167 l-6 -55 56 55 57 56 -3 124 -3 125 -22 -48z"/>
<path d="M1502 365 c-50 -102 -92 -190 -92 -195 0 -6 28 -10 64 -10 60 0 64 2
75 28 11 27 11 27 100 24 82 -3 89 -5 99 -28 11 -22 17 -24 77 -24 l65 0 -97
195 -98 195 -50 0 -50 0 -93 -185z m163 -15 c20 -39 20 -40 -20 -40 l-35 0 17
35 c9 19 18 35 20 35 1 0 9 -13 18 -30z"/>
<path d="M1922 527 c-21 -22 -22 -32 -22 -195 l0 -172 50 0 50 0 0 140 c0 133
1 140 20 140 19 0 20 -7 20 -140 l0 -140 50 0 50 0 0 140 c0 133 1 140 20 140
19 0 20 -7 20 -140 l0 -140 50 0 50 0 0 173 c0 168 -1 174 -23 195 -31 29
-140 32 -157 5 -10 -17 -10 -17 -20 0 -9 13 -25 17 -74 17 -52 0 -66 -4 -84
-23z"/>
<path d="M3725 343 c-8 -57 -8 -52 -6 -130 l1 -63 70 0 c39 0 70 2 70 5 0 12
-115 235 -122 235 -4 0 -10 -21 -13 -47z"/>
</g>
</svg>
